<?xml version="1.0" encoding="utf-8"?>
<svg version="1.1" xmlns="http://www.w3.org/2000/svg" xmlns:xlink="http://www.w3.org/1999/xlink" x="0px" y="0px"
	 viewBox="0 0 256 256" style="enable-background:new 0 0 256 256;" xml:space="preserve">
<style type="text/css">
	.st0{fill:#6299F7;}
	.st1{fill:#FFFFFF;}
	.st2{opacity:0.3;fill:#6299F7;}
</style>
<title>EXT:authorized-preview</title>
<rect y="0" class="st0" width="256" height="256"/>
<path class="st1" d="M127.6,91.8c-39.7,0-73.6,24.7-87.3,59.5c13.7,34.9,47.6,59.5,87.3,59.5s73.6-24.7,87.3-59.5
	C201.2,116.5,167.3,91.8,127.6,91.8z M127.6,191.1c-21.9,0-39.7-17.8-39.7-39.7s17.8-39.7,39.7-39.7s39.7,17.8,39.7,39.7
	S149.5,191.1,127.6,191.1z M127.6,127.6c-13.2,0-23.8,10.6-23.8,23.8c0,13.2,10.6,23.8,23.8,23.8s23.8-10.6,23.8-23.8
	C151.4,138.2,140.8,127.6,127.6,127.6z"/>
<g>
	<rect x="176.2" y="60.7" class="st0" width="53.6" height="44.6"/>
	<path class="st1" d="M203,91.9c4.9,0,8.9-4,8.9-8.9c0-4.9-4-8.9-8.9-8.9s-8.9,4-8.9,8.9C194.1,87.9,198.1,91.9,203,91.9z
		 M229.8,51.8h-4.5v-8.9c0-12.3-10-22.3-22.3-22.3s-22.3,10-22.3,22.3h8.5c0-7.6,6.2-13.8,13.8-13.8s13.8,6.2,13.8,13.8v8.9h-40.6
		c-4.9,0-8.9,4-8.9,8.9v44.6c0,4.9,4,8.9,8.9,8.9h53.6c4.9,0,8.9-4,8.9-8.9V60.7C238.7,55.8,234.7,51.8,229.8,51.8z M229.8,105.3
		h-53.6V60.7h53.6V105.3z"/>
</g>
<path class="st2" d="M167.3,105.3v-4.7c-2.9-1.4-5.9-2.6-9-3.7v8.3c0,9.9,8,17.9,17.9,17.9h21.4c-2.9-3.2-5.9-6.2-9.2-9h-12.2
	C171.3,114.3,167.3,110.2,167.3,105.3z"/>
</svg>
